<?xml version="1.0" encoding="utf-8"?>
<!-- Generator: Adobe Illustrator 27.1.1, SVG Export Plug-In . SVG Version: 6.00 Build 0)  -->
<svg version="1.1" id="Layer_1" xmlns="http://www.w3.org/2000/svg" xmlns:xlink="http://www.w3.org/1999/xlink" x="0px" y="0px"
	 viewBox="0 0 222.4 189.5" style="enable-background:new 0 0 222.4 189.5;" xml:space="preserve">
<style type="text/css">
	.st0{fill:#1C92A7;}
</style>
<g>
	<g>
		<path class="st0" d="M64.1,189.5c-16.1,0-31.4-1.4-45.8-4.1l-3.7-0.7L0,47.5L111.2,0l111.2,47.5l-14.6,136.3l-5.3-0.9
			c-12.3-2-26.3-3.1-40.4-3.1c-16.9,0-33.6,1.7-48.4,4.8C98.6,187.8,81.5,189.5,64.1,189.5z M24,176.1c12.6,2.2,26.1,3.3,40.2,3.3
			c16.6,0,33-1.6,47.5-4.7c15.4-3.3,32.9-5,50.5-5c12.7,0,25.3,0.9,36.8,2.4l12.6-118.3L111.2,11L10.8,53.8L24,176.1z"/>
	</g>
</g>
<g>
	<path class="st0" d="M185.8,136c2.4,3.3,3.6,6.9,3.4,11c-0.1,1.5-0.1,2.9-0.9,4.3c-0.7,1.2-1.4,2.4-2.1,3.6c-1.7,2.9-4.1,4.9-7.3,6
		c-0.1,0-0.3,0.2-0.4,0.3c0.2,0.2,0.3,0.4,0.5,0.6c0.5,0.5,0.6,1,0.2,1.6c-0.4,0.6-0.9,0.3-1.4,0c-0.7-0.4-1.4-0.8-2.3-1.3
		c0.1,0.3,0.1,0.5,0.1,0.7c0,0.3,0,0.9-0.2,1c-0.3,0.1-0.8,0.1-1-0.1c-0.7-0.4-1.4-0.9-2-1.3c-0.4-0.2-0.8-0.4-1.2-0.6
		c-0.1,0.2-0.1,0.3-0.1,0.3c-0.1,0.4-0.2,1.1-0.4,1.1c-0.4,0.1-0.9-0.1-1.3-0.4c-0.7-0.5-1.4-1-2.1-1.6c-0.7,1.4-1,1.5-2.2,0.6
		c-0.5-0.3-0.9-0.7-1.2-0.9c-0.3,0.5-0.6,1.1-0.8,1.2c-0.4,0-0.9-0.3-1.3-0.6c-0.3-0.2-0.5-0.4-0.7-0.7c-0.8,1-1.1,1.1-2.1,0.4
		c-0.7-0.5-1.4-1-2.1-1.6c-0.5,1-1.2,0.9-2,0.4c-0.7,1.7-1.6,0.5-2.4,0.2c-0.4,0.8-0.6,1.8-1.2,2c-0.6,0.3-1.6-0.2-2.3-0.3
		c-0.1,0.6-0.2,1.3-0.3,1.9c-0.7-0.1-1.3-0.2-2-0.3c-0.1,0.2-0.2,0.7-0.4,0.7c-0.9,0.1-1.3,0.5-1.7,1.3c-0.3,0.5-1.2,0.7-1.9,1.1
		c0,0.1,0.1,0.2,0.1,0.4c0,0.4,0,0.8,0,1.1c-0.4,0-0.9,0-1.2-0.1c-0.4-0.2-0.8-0.5-1.2-0.8c-0.8,1.2-1,1.2-2.1,0.4
		c-0.3-0.2-0.7-0.4-1-0.6c-0.3-0.2-0.6-0.3-0.9,0.1c-0.4,0.5-0.9,0.4-1.3,0.1c-0.5-0.4-1.1-0.7-1.6-1c-0.7,0.8-1.1,0.9-1.9,0.4
		c-0.2-0.1-0.4-0.3-0.6-0.5c-0.4-0.3-0.8-0.5-1.4-0.2c-0.3,0.2-0.9,0-1.3-0.2c-0.5-0.2-1-0.6-1.5-0.9c-0.8,0.8-1.3,0.8-2.1,0
		c-0.8-0.7-1.6-1.4-2.4-2.2c-0.5-0.5-0.9-1-1.3-1.5c-0.3-0.3-0.6-0.7-0.9-1c-0.7,1.1-1.1,1-1.8,0c-0.4-0.6-0.7-1.2-1.1-1.7
		c-1.2,0.7-1.3,0.6-2.2-0.4c-0.4-0.5-0.8-1-1.2-1.6c-0.8,1.1-1.2,1.1-2.1,0.2c-0.2-0.2-0.6-0.3-0.7-0.2c-0.7,0.5-1.2,0.2-1.7-0.3
		c-0.2-0.2-0.5-0.4-0.8-0.6c-1,0.9-1,0.9-2,0c-0.1-0.1-0.3-0.3-0.4-0.4c-0.3-0.3-0.6-0.4-0.9,0c-0.4,0.5-0.9,0.5-1.4,0.2
		c-0.7-0.4-1.4-0.9-2.1-1.3c-0.2-0.1-0.7-0.2-0.9-0.1c-0.4,0.3-0.8,0.5-1.3,0.2c-0.1-0.1-0.4,0-0.5,0.1c-0.6,0.8-1.1,0.3-1.6,0
		c-0.3-0.2-0.8-0.4-1-0.3c-0.7,0.4-1.2,0.2-1.7-0.2c-0.3-0.2-0.6-0.3-0.8,0.1c-0.3,0.5-0.7,0.4-1.2,0.2c-0.5-0.4-1-0.8-1.6-1.1
		c-0.2-0.1-0.6,0-0.8,0.1c-0.5,0.5-0.9,0.4-1.4,0.1c-0.5-0.4-1-0.8-1.5-1.1c-0.2-0.1-0.6-0.2-0.7-0.1c-0.6,0.7-1.2,0.2-1.8,0
		c-0.3-0.1-0.7,0-1,0c-0.4,0-0.9,0.1-1.3,0c-0.5-0.1-1.1-0.3-1.4-0.4c-0.3,0.7-0.3,1.2-0.6,1.5c-0.2,0.2-0.8-0.1-1.2-0.3
		c-0.5-0.3-1-0.7-1.5-1c-0.9-0.5-1.8-0.9-2.7-1.3c0,0.3,0,0.4,0.1,0.4c0.6,1,0.5,1.3-0.7,1.6c-0.5,0.1-1,0.4-1.3,0.8
		c-0.4,0.5-0.9,0.6-1.4,0.3c-0.7-0.4-1.2-0.3-1.8,0.3c-0.2,0.2-0.7,0.4-0.9,0.3c-0.2-0.1-0.4-0.6-0.5-0.9c-0.1-1,0.6-1.6,1.4-2.1
		c0.9-0.6,1.9-1.1,2.8-1.7c0.6-0.5,1.2-0.6,1.9-0.4c1,0.3,2,0.8,3.1,1.2c0.3,0.1,0.6,0.2,0.9,0.2c0.6,0,1.3-0.1,1.9,0
		c1,0.1,1.9,0.5,3,0.1c0.4-0.2,0.9,0.1,1.4,0.1c1.2,0,2.3-0.2,3.4,0.5c0.1,0,0.2-0.1,0.3-0.1c0.5,0,1.1,0.1,1.6,0.2
		c0.3,0.1,0.6,0.3,0.9,0.5c0.3,0.1,0.6,0.3,0.9,0.4c-1.5-1.2-2.8-2.5-3.4-4.3c-0.1-0.2-0.4-0.3-0.6-0.3c-2.1-0.1-4.1-0.1-6.2-0.3
		c-4.1-0.3-8.1-0.8-12.2-0.7c-0.5,0-0.8,0-0.9,0.6c-0.1,2-1,3.8-2,5.4c-0.3,0.5-0.7,0.9-1.2,1.3c-1.3,1.1-2.9,1.4-4.4,2
		c-3,1.1-6.1,1.2-9.2,0.7c-0.6-0.1-1.2-0.1-1.8-0.3c-3.1-0.7-5-3-6.3-5.6c-1.8-3.6-2.1-7.5-1.8-11.4c0-0.6-0.1-1-0.5-1.4
		c-0.8-0.8-1.2-1.7-1.1-2.8c0.1-1.5,0.2-3,0.7-4.3c1.2-3.6,2.6-7.2,3.9-10.8c0.1-0.2,0.2-0.3,0.3-0.5c0.1-0.2,0.3-0.5,0.4-0.7
		c0.4-2.6,1.3-5.1,2.4-7.5c0.1-0.1,0.1-0.3,0-0.5c-0.6-2.1,0.2-4.1,1.1-5.8c1.2-2.1,3.5-3.1,5.8-3.4c1.9-0.3,3.8,0.1,5.7,0.1
		c1.3,0,1.3-0.1,1.2-1.4c-0.3-2.7-0.6-5.5-0.7-8.2c-0.1-1.9,0.2-3.8,0.5-5.6c0.2-1.2,1.3-2,2.3-2c0.8,0,0.9-0.3,0.9-0.9
		c0-0.4,0-0.7,0-1.1c0.2-3.7,0.3-7.5,0.6-11.2c0.3-3.4,0.8-6.8,1.3-10.2c0.1-0.6-0.2-0.7-0.6-0.8c-0.8-0.3-1.7-0.5-2.4-0.9
		c-1.4-0.8-2.6-1.9-4-2.6c-1.2-0.6-1.3-1.5-1.4-2.5c0-0.3-0.1-0.7,0-0.9c0.3-0.6,0.5-1.3,1-1.8c1.7-1.7,4.1-2.1,6.3-2.7
		c2-0.5,4-0.7,6-1.2c4.2-1,8.4-1.7,12.6-2.1c4.1-0.3,8.1-0.6,12.2-0.8c3-0.2,6-0.3,9.1-0.3c4,0,7.9,0,11.9,0.1
		c3.1,0.1,6.2,0.2,9.3,0.4c3.6,0.3,7.1,0.7,10.7,1.2c3.8,0.5,7.5,1,11.2,1.5c2.3,0.4,4.6,0.8,6.8,1.4c2.2,0.6,4.2,1.5,6.3,2.4
		c1.1,0.5,1.5,1.3,1.2,2.6c-0.1,0.5-0.3,0.6-0.8,0.6c-1.7-0.2-3.4-0.4-5.1-0.6c-0.6-0.1-1.2-0.1-1.8-0.1c0.4,0.6,0.8,1,1.1,1.5
		c0.6,1.2,1.1,2.4,1.7,3.6c0.4,0.9,0.9,1.8,1.2,2.7c0.4,1.3,0.7,2.7,1.1,4c0.8,2.8,1.8,5.5,2.6,8.3c1.2,4.7,2.3,9.4,3.5,14
		c1.3,5.1,2.8,10.1,2.8,15.4c0,2.6-0.1,5.2-0.6,7.7c-0.2,1.1,0.3,1.7,0.9,2.3c1.6,1.7,3.2,3.2,4.7,5c2.2,2.6,4.4,5.4,6.5,8.1
		c0.7,0.9,1.4,1.8,2.1,2.6c0.7,0.9,0.6,1.4-0.6,1.8c-0.5,0.1-0.9,0.3-1.7,0.6C183.1,132.3,184.5,134.1,185.8,136z M176.6,128.4
		c0.5-0.6,0.9-1.2,1.4-1.8c0.2-0.2,0.6-0.2,0.9-0.2c0,0.3,0.1,0.7,0,0.9c-0.5,0.8-1.1,1.5-1.6,2.3c-0.1,0.2-0.3,0.4-0.5,0.6
		c0,0.1,0.1,0.2,0.1,0.2c1.6-0.3,3.1-0.7,4.9-1c-1.2-1.4-2.2-2.6-3.3-3.9c-1,1.3-1.9,2.5-2.9,3.7c-0.6,0.4-1.1,0.9-1.8,1.4
		c0.8,0.2,1.2,0.2,1.3-0.6c0-0.3,0.3-0.6,0.5-0.8C176,128.8,176.4,128.7,176.6,128.4z M166.7,108c0-3.9,0.1-7.8-0.9-11.6
		c-0.7-2.3-1.4-4.6-2.1-7c-0.8-2.6-1.5-5.3-2.2-7.9c-0.4-1.5-1-2.9-1.4-4.4c-0.6-2.2-1.1-4.4-1.7-6.6c-0.9-3.1-1.8-6.2-2.7-9.3
		c-0.2-0.5-0.5-0.8-1-0.8c-2.7-0.4-5.4-0.7-8-1.2c-2-0.3-3.9-0.8-5.9-1.2c-0.2-0.1-0.5-0.1-0.8-0.1c-2.7-0.2-5.3-0.6-8-0.7
		c-1.5-0.1-3,0.2-4.4,0.4c-3.2,0.5-6.4,1-9.8,1.4c0.3,1.1,0.5,2.3,0.8,3.4c0.8,2.8,1.6,5.6,2.6,8.3c1.4,4,2.2,8,3,12.2
		c0.4,2,0.9,4,1.3,6.1c0.6,3,1.3,6.1,2,9.1c0.4,1.6,0.8,3.3,1.3,4.9c0.1,0,0.2,0.1,0.3,0.1c0.5-0.6,1-1.1,1.3-1.7
		c0.3-0.7,0.8-1,1.5-1.1c2.1,0,4.1,0,6.2,0c1.3,0,2.5,0.2,3.8,0.1c2.3,0,4.4,0.8,6.6,1.2c3.5,0.7,6.8,2,10.1,3.5
		c1.6,0.8,3.2,1.5,4.8,2.3c0.7,0.4,1.4,1,2.1,1.5c0.4,0.3,0.8,0.6,1.1,0.8c0.1,0,0.2-0.1,0.2-0.1C166.7,109.1,166.8,108.6,166.7,108
		z M117.4,73.1c-0.7-2.8-1.3-5.7-2.1-8.5c-0.5-1.8-1.1-3.5-1.6-5.3c-0.6-2.2-1.1-4.4-1.6-6.7c-0.1-0.2-0.1-0.5-0.2-0.7
		c-0.6-1.4-0.6-1.5-0.2-3c-0.2,0-0.4-0.1-0.6-0.1c-2.1-0.1-4.2-0.3-6.3-0.3c-3.3,0-6.5,0.2-9.8,0.4c-1.8,0.1-3.6,0.3-5.5,0.5
		c-2.9,0.4-5.8,0.8-8.7,1.2c-1.8,0.3-3.6,0.6-5.4,0.9c-2.1,0.4-4.3,0.7-6.4,1.2c-1.5,0.3-2.9,0.9-4.3,1.3c-0.9,0.3-1.7,0.5-2.6,0.8
		c-0.3,0.1-0.5,0.2-1.1,0.5c1.4,1,2.7,1.8,3.9,2.6c0.5,0.3,1,0.5,1.5,0.7c0.3,0.1,0.7,0.3,0.9,0.2c0.8-0.4,1.2-0.1,1.4,0.8
		c1.4-1.6,3-0.8,4.3-0.4c4.1,0.9,8.4,1.2,12.6,1.7c2.2,0.3,4.5,0.5,6.7,0.8c0.1,0,0.3,0.1,0.4,0c1.3-0.6,2.7-1.3,4-1.9
		c0.2-0.1,0.3-0.3,0.5-0.3c1.6-0.1,3.3-0.3,4.9-0.3c2.1-0.1,4.2-0.1,6.2-0.1c1.4,0,2.9,0,4.3,0.1c0.2,0,0.7,0.3,0.6,0.5
		c0,0.3-0.3,0.6-0.5,0.7c-0.2,0.1-0.6,0.1-0.9,0.1c-2.4,0.1-4.8,0.3-7.2,0.3c-0.8,0-1.5,0-2.3-0.1c-1.1-0.1-1.6,0.2-1.6,1.3
		c-0.1,4.4-1.4,8.8-1.1,13.2c0.1,1.7-0.3,3.4-0.4,5.1c0,1,0.1,2,0.2,3c0,0.5,0.3,0.7,0.8,0.7c1.1,0.1,2.2,0.4,3.2,0.6
		c0.3,0,0.7-0.1,1-0.3c1-1,2-2.1,3.1-3.2c1.7-1.7,3.9-2.4,6.2-2.8c1.5-0.3,3-0.6,4.7,0.3C118.2,76.5,117.8,74.8,117.4,73.1z
		 M101.1,85.4c-1.8,0.1-3.7,0.1-5.5,0.3c-1,0.1-1.9,0.6-2.4,1.6c-0.4,0.8-1.1,1.2-2,1.3c-0.6,0.1-1.2,0.1-1.9,0.2
		c-1.7,0.3-2.9-0.8-4.1-1.7c-2.5-1.7-5.3-2.4-8.2-2.5c-0.8,0-1.5-0.2-2.3-0.2c-1.4,0-2.8,0-4.2,0.2c-1.6,0.2-2.4,1.5-3,2.8
		c-0.9,2-1,4.1-0.8,6.2c0.2,2.5,0.7,5,1,7.5c0,0.2,0.1,0.4,0.1,0.6c1,0,1.8,0,2.8,0c-0.1-3.2-1.1-6.3-0.1-9.5c0.5,0.8,1.3,8.8,1,9.5
		c1.9,1,3.8,2.1,5.7,2.8c1.4,0.5,3,0.4,4.5,0.7c2,0.3,3.9-0.1,5.8-0.3c2.3-0.2,3.9-1.3,4.8-3.4c0.1-0.2,0.5-0.4,0.8-0.5
		c0.1,0.3,0.4,0.7,0.3,0.9c-0.3,0.8-0.6,1.6-1.1,2.6c0.9,0.3,1.9,0.6,3.1,1c-0.4-1.2-0.8-2.1-0.9-3c-0.4-2.3-0.7-4.6-1-6.9
		c-0.1-1.6-0.1-3.1,0-4.7c0-0.5,0.4-1,0.6-1.5c0.1,0,0.3,0,0.4,0.1c0.1,0.4,0.1,0.8,0.2,1.2c0.1,2,0.1,4.1,0.3,6.1
		c0.2,1.9,0.4,3.8,0.9,5.7c0.2,1,1,1.9,1.5,2.9c0.1,0.1,0.3,0.2,0.5,0.2c2.5,0.6,5.1,1.1,7.7,0.8c1.9-0.2,3.6-1.1,5.3-2.1
		c1.3-0.8,1.8-1.9,1.9-3.3c0.1-1.9,0-3.7-1.2-5.3c-0.1-0.1-0.1-0.2-0.2-0.3c0,0-0.1-0.1-0.1-0.1c-2.2,1.2-4.6,1.7-7.1,1.3
		c-1.8-0.3-3.1-2-3.2-3.8c-0.1-2.1,0.4-4.2,1.5-6c0.2-0.3,0.3-0.5,0.6-1C102.3,85.6,101.7,85.4,101.1,85.4z M77.9,83.2
		c2.3,0.2,4.6,0.6,6.7,1.7c1.1,0.6,2.1,1.3,3.2,2c1.2,0.8,2.5,0.5,3.7,0.1c0.8-0.3,1.3-1.4,1.9-2.1c0.2-0.2,0.4-0.5,0.6-0.5
		c0.8-0.2,0.8-0.8,0.7-1.5c-0.3-2-0.6-4-0.8-6c-0.5-4.3-0.9-8.7-1.3-13c-0.1-1.1-0.1-1.1-1.2-1.2c-4.1-0.4-8.1-0.8-12.2-1.3
		c-2.4-0.3-4.8-0.6-7.2-0.9c-0.4-0.1-0.7-0.1-0.8,0.5c-0.4,2.6-1,5.1-1.2,7.7c-0.2,2.4,0,4.9,0.1,7.4c0.1,2.1,0.4,4.1,0.6,6.1
		c0.1,0.6,0.3,0.8,0.9,0.8c0.5,0,1.1,0,1.6,0c0,0,0-0.1,0-0.1C74.8,83,76.4,83.1,77.9,83.2z M48,116.3c-0.1,0.5,0.1,0.7,0.6,0.8
		c2.8,0.4,5.4,1.3,8,2.5c3.5,1.7,6.5,3.9,8.8,6.9c1.3,1.7,2.6,3.5,3.2,5.6c0.3,1,1.5,1.4,2.4,1.5c3.2,0.5,6.4,0.9,9.6,1.2
		c2,0.2,4,0.3,6,0.5c0.2,0,0.6-0.3,0.6-0.4c0.1-1.2,0.2-2.3,0.2-3.5c0-0.9,0.1-1.7,0.1-2.6c0.1-1.1,0.1-2.2,0.2-3.3
		c0-0.8-0.4-1.3-1.2-1.5c-3.2-1-6.4-2-9.6-3c-2.9-0.9-5.8-1.8-8.7-2.6c-1.1-0.3-2.3-0.5-3.4-0.7c-2-0.5-4-1.1-6-1.5
		c-3-0.6-6.1-1-9.1-1.5c-0.4-0.1-0.7-0.3-1.2-0.6C48.3,114.9,48.1,115.6,48,116.3z M117.3,57.2c1.1-0.1,2.1-0.2,3-0.3
		c2.6-0.3,5.3-0.7,7.9-1c2.6-0.3,5.1-0.4,7.7,0.1c1.7,0.3,3.5,0.4,5.3,0.7c1.9,0.3,3.8,0.9,5.7,1.3c2.3,0.4,4.6,0.8,6.9,1.2
		c0.3,0,0.6,0.1,1.1,0.1c-0.5-1.6-1-3.1-1.5-4.5c-0.1-0.2-0.2-0.4-0.2-0.5c0.1-1.2-0.7-1.3-1.5-1.4c-4-0.5-8.1-0.9-12.1-1.4
		c-2.1-0.3-4.1-0.7-6.2-1c-2.9-0.4-5.8-0.7-8.6-1c-2.5-0.2-5-0.3-7.5-0.5c-0.8,0-1.5-0.1-2.3-0.1C115.7,51.7,116.5,54.5,117.3,57.2z
		 M69.6,48.9c-0.3,0.1-0.7,0.2-1,0.2c-0.2,0.1-0.5,0.2-0.7,0.2c-2.1-0.2-3.8,1.2-5.7,1.5c-0.7,0.1-1.3,1.1-2,1.6
		c-0.1,0.1-0.1,0.4,0,0.5c0.1,0.1,0.4,0.2,0.5,0.1c1.3-0.3,2.7-0.6,4-0.9c1.1-0.3,2.2-0.8,3.4-1c2.1-0.4,4.3-0.8,6.4-1.2
		c1.5-0.3,2.9-0.7,4.4-0.9c3.4-0.4,6.7-0.8,10.1-1.2c1-0.1,2-0.3,3-0.4c4.6-0.3,9.2-0.5,13.8-0.7c1.1,0,2.3,0.1,3.4,0.1
		c5.3,0,10.5,0.2,15.7,0.8c3.4,0.4,6.7,0.9,10.1,1.3c3.4,0.4,6.8,0.8,10.1,1.3c4,0.6,7.9,1.2,11.9,1.8c1.3,0.2,2.7,0.3,4.1,0.4
		c0.1-0.4,0.1-0.6,0.2-1.1c-2.2-0.6-4.3-1.4-6.5-1.9c-2-0.5-4.1-0.9-6.2-1.3c-3.2-0.5-6.4-0.9-9.6-1.4c-2.6-0.4-5.2-0.7-7.9-1
		c-1.6-0.2-3.1-0.3-4.7-0.4c-2.7-0.1-5.4-0.3-8-0.3c-3.4-0.1-6.8,0-10.2,0c-3,0-5.9,0-8.9,0.1c-2.3,0.1-4.7,0.2-7,0.4
		c-3.3,0.2-6.7,0.4-10,0.7c-1.6,0.1-3.3,0.5-4.9,0.6c-0.9,0.1-1.6,0.2-2.4,0.6c-1.1,0.6-2.4,0.7-3.4,0.5
		C70.6,48.6,70.1,48.8,69.6,48.9z M115.8,112.2c-1.7-0.1-3.4-0.2-5.1-0.3c-1.9-0.1-3.9,0-5.8,0c-2.5,0-5.1,0-7.6,0
		c-2.5,0-4.9,0.1-7.4,0.1c-0.3,0-0.7-0.1-1-0.1c-1.9,0-3.8,0.1-5.7,0.1c0,0.1-0.1,0.2-0.1,0.3c0.6,0.8,1.2,1.5,1.8,2.3
		c0.1,0.1,0.3,0.2,0.4,0.4c1.1,2,3,1.9,4.9,2c0.8,0,1.6,0,2.5,0c0.4,0,0.7-0.2,1.1-0.2c0.4,0,0.7,0,1.1,0c0.4,0.1,0.8,0.3,1.2,0.3
		c4,0,7.9-0.2,11.9-0.1c3.2,0.1,6.3,0.5,9.4,0.7c0.5,0,1.1,0.4,1.4,0.2c0.4-0.2,0.5-0.8,0.8-1.3c0.5-0.8,1-1.6,1.5-2.4
		c0.3-0.5,0.5-1,0.9-1.7C119.8,112.5,117.8,112.4,115.8,112.2z M129.1,148.4c-0.2,0.5-0.5,0.8-1,0.6c-0.6-0.2-0.6-0.6-0.6-1.1
		c0-0.8-0.1-1.5-0.2-2.3c0-0.1-0.2-0.3-0.4-0.5c-0.1,0.3-0.3,0.4-0.3,0.6c-0.8,3.4-0.5,6.8,1.8,9.6c0.9,1.1,2.4,1.9,3.8,2.5
		c0.5,0.2,1.5-0.3,2.2-0.6c0.8-0.4,1.4-0.9,1.3-2c-0.1-1.4,0.7-2.6,1.7-3.7c0.1-0.1,0.2-0.2,0.3-0.2c0.3-0.1,0.7-0.2,0.8-0.4
		c0.1-0.7,0.3-1.4,0.1-2.1c-0.1-0.4-0.8-0.6-1.1-0.9c-1-1-1.5-3.6-0.8-4.9c0.4-0.7,0.2-1.1-0.2-1.7c-1.2-1.5-2.8-1.8-4.6-1.8
		c-0.2,0-0.3,0.1-0.4,0.2c-0.4,0.2-0.9,0.5-1.3,0.5c-0.7,0-1,0.5-1.3,1c-0.5,0.9-1,1.7-1.5,2.6C128.8,144.5,129.7,146.9,129.1,148.4
		z M66.5,105.4c0-0.3,0-0.6,0-0.8c-0.1-1.3-0.1-1.2-1.3-1.5c-1.8-0.3-3.5-0.8-5.3-0.9c-2.3-0.2-4.6-0.2-6.8,0.9
		c-2.1,1.1-2.8,3-3.4,5c-0.1,0.4,0.1,0.7,0.6,0.7c2.9-0.1,5.7,0.6,8.5,1.1c2.6,0.5,5.2,1.1,7.8,1.7c0.1,0,0.2,0,0.4,0
		C66.4,109.5,66.4,107.5,66.5,105.4z M140.5,109.4c-0.2,0.9-0.7,1.1-1.4,0.5c-0.4-0.4-0.9-0.8-1.4-1.3c-0.4,0.6-0.7,1.1-1.1,1.5
		c-0.2,0.2-0.6,0.4-0.9,0.3c-0.5-0.1-0.9-0.3-1.2-0.4c-0.2,0.4-0.3,1.1-0.5,1.1c-0.4,0.1-1-0.1-1.4-0.3c-0.4-0.2-0.7-0.5-1.1-0.7
		c-0.2,0.9-0.3,1.7-0.5,2.5c-0.1,0.5-0.5,0.7-1,0.6c-0.3-0.1-0.7-0.2-1-0.3c-0.3,0.5-0.6,1-0.9,1.5c2.5,0.2,4.6,1.3,6.8,2.3
		c1.3,0.6,2.7,1,4.1,1.5c0.3,0.1,0.7,0.3,1.1,0.5c-0.1-0.3-0.1-0.4-0.2-0.5c-0.1-0.3-0.3-0.7-0.2-0.9c0.2-0.2,0.7-0.5,0.9-0.4
		c0.9,0.3,1.8,0.6,2.8,1c0.2,0.1,0.3,0.2,0.5,0.3c0.8-0.9,1-0.9,2.1-0.4c1,0.5,2.1,0.7,3.3,0.4c-0.4-1.6-6.7-8.1-8.9-9.2
		C140.5,109.2,140.5,109.3,140.5,109.4z M154.1,133.2c-0.1,0.1-0.1,0.2-0.2,0.3c0.8,1.6,1.5,3.2,2.3,4.8c0.3,0.6,0.9,0.8,1.6,0.9
		c2,0.1,4,0.4,6,0.4c1.8,0,3.6-0.5,5.3-0.7c0.9-0.1,1.9-0.1,2.8-0.2c0.3,0,0.7-0.3,0.8-0.5c0.4-1.3,0.7-2.6,1-3.9
		c0.1-0.5,0.3-1.1,0.4-1.8C167.4,133.2,160.8,134.3,154.1,133.2z M148.7,114.3c1.1-0.1,2.1-0.3,3-0.3c3.3,0,6.6,0.1,10,0.2
		c2.6,0.1,5.1,0.4,7.9,0.7c-1.5-1.4-2.9-2.8-4.3-4.1c-0.1-0.1-0.6,0-0.8,0.1c-0.5,0.2-0.9,0.2-1.5,0c-0.8-0.3-1.6-0.3-2.5-0.4
		c-3.9-0.7-7.8-0.5-11.7-0.7c-0.4,0-0.9,0.2-1.4,0.2c-0.3,0-0.8,0-1-0.2c-0.7-0.8-1-0.9-1.9-0.3c-0.2,0.1-0.3,0.2-0.5,0.4
		C145.7,111.5,147.3,113,148.7,114.3z M53.1,148.1c0.1,0,0.2-0.3,0.2-0.4c0.2-0.3,0.4-0.8,0.6-0.8c0.3,0,0.6,0.3,0.9,0.5
		c0.1,0.1,0.2,0.2,0.5,0.5c0.6-1.3,1.1-2.4,1.6-3.5c-0.7-0.2-1.2-0.3-1.7-0.5c-0.4,0-0.8,0.1-1.3,0.1c0-0.1,0-0.1,0-0.2
		c-0.3,0.2-0.5,0.5-0.8,0.6c-0.3,0.1-0.7,0.2-1,0c-0.9-0.4-1-2.5-0.2-3c0.8-0.6,1.4-0.4,2.1,0.8c0.8-0.2,1.4-0.6,1.5-1.6
		c0-0.9,0.7-0.8,1.5-0.6c-0.2-0.8-0.2-1.5-0.5-2c-0.8-1.1-1.4-2.4-2.8-3.1c-1.5-0.7-2.8-0.4-4.1,0.4c-2.7,1.7-3.1,4.3-3,7.1
		c0.1,2.1,0.3,4.1,1.2,6c0.8,1.8,2.9,2.5,4.8,1.6C52.2,149.1,52.2,148.4,53.1,148.1z M127.8,115.5c0.1-0.1,0.2-0.2,0.3-0.3
		c-0.6-0.1-1.2-0.2-1.7-0.3c-2,1.5-2.4,3.9-3.1,6c-0.3,1-0.2,1.1,0.7,1.2c3.1,0.3,6.1,0.6,9.2,0.8c2.4,0.2,4.8,0.4,7.3,0.6
		c0.4,0,0.8,0,1.4-0.2c-0.4-0.3-0.7-0.7-1.2-0.9c-0.8-0.4-1.6-0.7-2.5-1.1c-0.6-0.2-1.1-0.5-1-1.3c0-0.1-0.2-0.4-0.4-0.5
		c-1.9-1-3.9-1.6-6.1-1.8c-0.6,0-1.2-0.2-1.8-0.2c-0.4,0-0.9,0-1.3,0.1c-0.6,0.1-1.2,0.3-1.4-0.5c-0.1-0.7,0.5-1,1.1-1
		c0.5,0,1,0,1.6,0c0-0.1,0-0.1,0.1-0.2C128.7,115.8,128.2,115.6,127.8,115.5z M151.9,118.9c1.5-0.1,2.8-0.2,4.2-0.2
		c3.2-0.1,6.4-0.2,9.6-0.2c1.5,0,3.1,0.2,4.5,0.6c0.7,0.2,1.3,1,1.8,1.7c0.1,0.2-0.2,0.7-0.3,1.2c0-0.1,0,0,0,0
		c0.9,0,1.6,0.4,2.1,1.2c0.1,0.2,0.6,0.1,1,0.1c0.6,0,1.2-0.1,1.9-0.2c-2.2-2.5-4.4-5.1-6.7-7.9c-0.1,1.3-0.6,1.4-1.5,1.2
		c-1.4-0.3-2.9-0.4-4.4-0.5c-1.7-0.1-3.3-0.2-5-0.2c-0.7,0-1.3,0.1-2,0.1c-1.7-0.1-3.4-0.2-5.1-0.3c-0.7,0-1.4,0.1-2.3,0.2
		C150.5,116.9,151.3,118,151.9,118.9z M134.8,104.9c0,0,0.1-0.1,0.1-0.1c-0.5-0.6-1.1-1.2-1.6-1.8c-0.2-0.2-0.2-0.5-0.3-0.7
		c0.3,0,0.6,0,0.8,0.1c0.4,0.2,0.7,0.4,1,0.7c0.4,0.3,0.8,0.7,1.4,0.3c0.2-0.1,0.7,0.2,0.9,0.4c1.1,1,2.1,2,3.1,3
		c0.4,0.4,2,0.7,2.5,0.4c1.2-0.8,2.5-1,3.9-0.9c3.6,0.2,7.2,0.4,10.8,0.8c0.6,0.1,1.2,0.5,1.7,0.9c0.6,0.4,1.2,0.6,2.1,0.4
		c-0.5-0.3-0.7-0.5-1-0.6c-2.4-1-4.7-2.1-7.1-3c-1.9-0.7-3.9-1-5.9-1.6c-0.8-0.2-1.6-0.6-2.4-0.7c-1.6-0.2-3.2-0.3-4.8-0.3
		c-1.4-0.1-2.8-0.1-4.1-0.1c-1,0-2-0.1-3,0.1c-0.4,0.1-0.8,0.6-1.4,1C132.6,103.6,133.7,104.2,134.8,104.9z M149.9,160.5
		c0.3-0.8,0.4-1.7,0.9-2c0.7-0.5,1.6-0.7,2.5-1c0.2-0.1,0.5,0.1,0.7,0.2c0.5,0.3,1,0.5,1.6,0.1c0.2-0.1,0.7,0,1,0.1
		c0.6,0.2,1.2,0.5,1.8,0.9c0.2-0.8,0.7-1.2,1.5-0.7c0.1,0.1,0.4,0,0.5-0.1c0.4-0.5,0.9-0.3,1.4-0.1c1.1,0.7,2.2,1.3,3.4,2
		c0.2-0.2,0.4-0.5,0.7-0.7c-2.2-1.5-3.4-3.7-4.4-6c-0.1-0.2-0.4-0.4-0.7-0.4c-0.7-0.1-1.5-0.2-2.3-0.2c-0.2,0-0.5-0.1-0.6-0.2
		c-1.3-1.2-2.9-0.7-4.4-0.7c-0.3,0-0.7,0.3-0.8,0.6c-0.8,2.7-2.1,5.2-3.6,7.6c-0.1,0.1-0.1,0.2-0.1,0.5
		C149.2,160.4,149.7,160.4,149.9,160.5z M74.2,138.5c3.7,0.4,7.5,0.8,11.2,1.2c0.3,0,0.7,0.1,1,0c0.2,0,0.4-0.1,0.4-0.2
		c0.3-0.6,0.6-1.2,0.8-1.8c0.3-0.9,0.1-1.1-0.8-1.2c-1.9-0.1-3.8-0.1-5.6-0.2c-1.8-0.1-3.5-0.4-5.3-0.6c-1.7-0.2-3.4-0.3-5.1-0.6
		c-0.9-0.2-1.8-0.5-2.7-0.8C69.7,136.3,71.4,138.2,74.2,138.5z M109,153.4c0,0,0.1-0.1,0.1-0.1c-0.1-0.2-0.1-0.3-0.2-0.5
		c-0.5-0.9-0.3-1.7,0.7-2.2c0.2-0.1,0.5,0,0.7,0.1c0.2,0.1,0.3,0.3,0.4,0.4c0.9,1.3,0.9,1.3,2.4,1.8c0.1-0.6,0.1-1.2,0.2-1.9
		c0.4,0.1,0.8,0.2,1.3,0.3c0.9-0.5,0.9-0.5,2.9,1.3c0.3-0.1,0.8-0.4,0.9-0.3c0.3,0.2,0.5,0.6,0.7,1c0.2,0.3,0.2,0.7,0.3,1.1
		c0.6-0.1,0.9-0.3,0.8-0.9c-0.3-1.6-0.6-3.3-0.9-4.9c-0.1-0.7-1-1.2-2-0.9c-1.5,0.4-2.9,0.3-4.4,0.2c-0.8-0.1-1.7-0.1-2.5-0.1
		c-0.2,0-0.5,0.2-0.5,0.4c-0.1,1.3-1.2,1.7-2,2.4c-0.4,0.3-0.8,0.5-1.3,0.8C107.5,152,108.3,152.7,109,153.4z M47.5,132.5
		c0.7-0.1,1.5-0.1,2.1-0.5c1.5-0.8,2.8-0.9,4.2,0.1c0.2,0.2,0.5,0.3,0.7,0.3c0.9,0.1,1.2,0.7,1.1,1.6c0,0.3,0.1,0.8,0.3,0.9
		c1.4,0.7,2.1,2,2.3,3.4c0.5,2.2,0.8,4.5,0.1,6.8c-0.7,2.1-1.5,4.2-3.4,5.5c-0.9,0.6-2,1-3.1,1.5c0.4,0.1,0.8,0.2,1.2,0.2
		c1.2-0.3,2.4-0.3,3.4-1.2c0.4-0.4,1.1-0.5,1.6-0.9c0.9-0.8,1.6-1.7,1.3-3c0-0.2,0.1-0.5,0.2-0.7c0.5-1.8,1.1-3.6,0.5-5.6
		c-0.3-1-0.4-2.1-0.6-3.2c-0.1-0.5-0.2-1-0.9-1.1c-0.2,0-0.5-0.4-0.5-0.6c0-1.5-1-2.4-1.7-3.5c-0.3-0.5-0.5-0.9,0-1.3
		C53.4,129.5,49.8,130.4,47.5,132.5z M123.7,110c0.2-0.1,0.3-0.3,0.5-0.5c1.1-0.8,1.1-0.8,0.2-1.7c-1.2-1.2-2.3-2.5-3.6-3.6
		c-0.6-0.5-1.5-0.8-2.3-0.9c-1.4-0.2-2.1,1.3-1.7,2.6c0.4,1.6,1.1,3.1,1.7,4.7c0.1,0.2,0.3,0.3,0.4,0.4c0.8,0.2,1.5,0.4,2.5,0.6
		C122.1,111.1,122.9,110.6,123.7,110z M84.3,121.7c-1.5-1.3-2.8-2.4-4.6-2.8c-1.7-0.4-3.4-0.7-5-1.2c-0.4-0.1-0.9-0.4-0.9-0.7
		c-0.1-0.7-0.5-0.7-0.9-0.8c-1.7-0.4-3.5-0.8-5.2-1.1c-2.4-0.5-4.7-1-7.1-1.3c-2.8-0.4-5.6-0.6-8.5-0.9c0,0.1,0,0.3-0.1,0.4
		C62.9,115.2,73.4,118.7,84.3,121.7z M63.8,99.2c0.1,0.6,0.5,1.1,0.9,1.6c0.2,0.2,0.9,0.4,1.1,0.2c0.2-0.1,0.3-0.7,0.3-1.1
		c0-0.6-0.1-1.2-0.3-1.8c-0.7-3.6-0.7-7.2-0.6-10.9c0-0.3,0.1-0.6,0-0.9c-0.1-0.3-0.3-0.8-0.5-0.8c-0.4,0-1,0.2-1.1,0.5
		c-0.3,0.6-0.5,1.4-0.6,2.1c-0.1,0.8,0,1.7,0,2.5c-0.1,0-0.2,0-0.2,0C63.2,93.5,63.4,96.4,63.8,99.2z M165.5,127.8
		c0.2-0.3,0.5-0.6,0.8-0.9c0.2-0.2,0.6-0.4,0.7-0.3c0.2,0.2,0.4,0.6,0.4,0.9c0,0.3-0.2,0.6-0.1,1.1c0.4-0.4,0.7-0.8,1.2-1.1
		c0.3-0.2,0.7-0.3,1-0.4c0,0.4,0.2,0.8,0.1,1.2c-0.4,0.8-0.8,1.5-1.2,2.4c0.7-0.7,1.4-1.5,2.1-2.2c0.4-0.4,0.8-0.9,1.2-1.3
		c0.2-0.1,0.4-0.1,0.7-0.2c0,0.2,0.1,0.5,0,0.7c-0.2,0.4-0.5,0.8-0.8,1.2c-0.1,0.2-0.3,0.4-0.3,0.7c1.3-1,2.2-2.4,3.2-3.9
		c-0.5,0-0.9,0-1.2,0.1c-2.8,0.2-5.6,0.4-8.4,0.6c-1.6,0.1-3.2,0.3-4.9,0.4c-0.2,0-0.4,0.1-0.5,0.3c-0.8,1.1-1.6,2.3-2.4,3.4
		c-0.1,0.1-0.1,0.2-0.2,0.4c0.9-0.1,1.5-0.5,2-1.1c0.5-0.5,1-1,1.5-1.5c0.2-0.1,0.5-0.1,0.7-0.2c0,0.3,0.2,0.6,0,0.8
		c-0.3,0.5-0.7,0.9-1.1,1.3c-0.5,0.5-0.9,1-1.4,1.5c0.1,0.1,0.1,0.2,0.2,0.2c0.6-0.4,1.2-0.8,1.7-1.3c1-1.1,1.9-2.3,2.8-3.4
		c0.1-0.2,0.4-0.2,0.5-0.3c0.1,0.2,0.3,0.5,0.2,0.6c-0.1,0.4-0.3,0.9-0.5,1.2c-0.6,0.9-1.4,1.7-2,2.5c-0.1,0.2-0.3,0.4-0.4,0.6
		C162.8,130.9,164.2,129.5,165.5,127.8z M117.5,91.7c-0.4,0.5-0.4,0.8,0,1.2c1.6,1.9,3.2,3.8,4.8,5.7c0.3,0.3,0.6,0.7,0.9,1
		c0.1,0,0.2-0.1,0.3-0.1c-0.8-3.9-1.5-7.8-2.3-11.7c-0.1,0-0.2,0-0.3,0C119.7,89.1,118.6,90.4,117.5,91.7z M168.4,120.3
		c-2.4-0.1-4.8-0.2-7.3-0.2c-2.6,0-5.2,0.3-7.8,0.4c-0.1,0-0.3,0.1-0.5,0.1c0.1,0.5,0.3,0.9,0.3,1.2c0.8,0,1.4,0.1,2.1,0.1
		c0.3,0,0.8-0.3,1-0.2c1,0.5,2.1-0.1,3,0.3c1.1,0.5,2.3,0.4,3.2,0.1c0.9-0.2,1.5-0.4,2.4-0.3c0.7,0.1,1.5-0.4,2.2-0.6
		c0.2-0.1,0.4-0.1,0.6,0c0.9,0.4,1.9,0.8,2.9,0.1C170.2,120.4,169.2,120.3,168.4,120.3z M112.5,105.2c-0.2,0.1-0.4,0.1-0.6,0.2
		c-1,0.7-2.1,1.3-2.9,2.4c-0.6,0.8-1.9,1.1-2.9,1.6c-0.2,0.1-0.4,0.4-0.7,0.6c0.2,0.1,0.5,0.3,0.7,0.3c2.2,0.1,4.3,0.2,6.5,0.3
		c0.4,0,0.9,0.1,1.4,0.1C113.5,108.8,113,107,112.5,105.2z M75.5,109.5c-0.3,0.4-0.5,0.8-0.8,1.1c-0.2,0.2-0.5,0.4-0.8,0.6
		c-0.2,0.1-0.3,0.2-0.5,0.3c0.2,0.2,0.3,0.5,0.5,0.6c1.7,0.8,3.4,1.6,5.2,2.3c0.9,0.4,1.9,0.7,2.9,1.1c0-0.1,0.1-0.1,0.1-0.2
		c-1.1-1.4-2.3-2.8-3.4-4.2C76.5,112.6,76.5,110.3,75.5,109.5z M119.3,122.3c1.5,0.1,1.8-0.1,2.3-1.5c1.1-2.9,2.4-5.8,3.6-8.7
		c0.1-0.2,0.1-0.4,0.3-0.8C123.9,112.3,119.9,119.5,119.3,122.3z M165.1,144.9c-0.4,0.1-0.9,0.1-1.1-0.1c-0.2-0.2-0.2-0.7-0.3-1.1
		c0-0.2,0.1-0.4,0.1-0.6c0-0.5,0-1.1,0.1-1.7c-1.5-0.1-3.2-0.2-5.2-0.3c0.6,1,1.1,1.7,1.5,2.4c0.1,0,0.1,0,0.2-0.1
		c-0.1-0.5-0.2-0.9-0.4-1.4c0.1-0.1,0.2-0.1,0.2-0.2c0.5,0.5,1.1,1.1,1.6,1.6c0-0.2,0-0.5,0-0.7c0.1,0,0.2,0,0.3,0.1
		c0.5,0.7,1,1.5,1.6,2.2c0.2,0.2,0.5,0.5,0.7,0.4c1.6-0.3,3.1-0.6,4.7-0.9c0-0.1,0-0.2,0-0.3C167.7,144.5,166.4,144.7,165.1,144.9z
		 M71.8,110.8c-0.1-0.3-0.2-0.5-0.3-0.6c-0.1-0.3-0.4-0.6-0.3-0.7c0.7-1-0.3-1.4-0.7-2c-0.2-0.4-0.4-0.7-0.6-1.2
		c1.1,0,1.7,0.6,2.3,1.2c0.6,0.6,1.2,1.1,1.7,1.7c0.1-0.1,0.2-0.1,0.2-0.2c-0.2-0.4-0.5-0.8-0.7-1.1c-0.7-0.9-1.3-1.8-2.1-2.6
		c-0.4-0.4-1.1-0.6-1.7-0.9C69,106.4,70.3,110.3,71.8,110.8z M148.7,127.7c0.3-0.1,0.6-0.1,0.9-0.2c-0.1,0.3,0,0.8-0.2,1
		c-0.2,0.4-0.7,0.6-1,0.9c-0.1,0.1-0.2,0.3-0.3,0.4c0,0.1,0.1,0.1,0.1,0.2c0.3-0.1,0.7-0.1,0.9-0.3c0.7-0.7,1.3-1.5,2-2.3
		c0.2-0.2,0.6-0.3,0.8-0.4c0,0.4,0.2,0.7,0.1,1.1c0,0.3-0.3,0.6-0.5,0.9c0.1,0.1,0.1,0.1,0.2,0.2c0.7-0.7,1.3-1.4,2-2.1
		c0-0.1-0.1-0.2-0.1-0.3c-1.4-0.1-2.9-0.3-4.3-0.4c-0.1,0-0.3,0.1-0.4,0.2c-0.5,0.6-0.9,1.2-1.3,1.8c0,0,0.1,0.1,0.1,0.1
		C148.1,128.2,148.4,127.9,148.7,127.7z M128,124.1c-1.7-0.2-3.2-0.3-4.7-0.4c-0.1,0.1-0.1,0.2-0.2,0.2c0.4,0.3,0.9,0.6,1,1
		c0.2,0.5,0,1,0,1.7c0.3-0.4,0.5-0.7,0.8-1c0.2-0.2,0.4-0.4,0.7-0.5c0.1,0.3,0.3,0.5,0.4,0.8c0,0.1,0,0.2,0,0.3
		c0.1,0,0.1,0.1,0.2,0.1C126.8,125.6,127.3,124.9,128,124.1z M114.5,99.6c0.8,0,1.7-0.1,2.7-0.1c-1-1.5-2-2.9-3.5-4
		C114,97,114.3,98.2,114.5,99.6z M92.4,108.4c-0.2-0.2-0.5-0.4-0.7-0.6c-0.2-0.3-0.4-0.8-0.5-1.1c0.4-0.2,0.8-0.3,1-0.4
		c-1-0.5-1.3-0.5-2.4,0.6c0.8,0.9,1.7,1.8,2.4,2.8c0.5,0.8,1.2,0.9,2,0.8c0,0,0.1-0.1,0.3-0.3C93.7,109.5,93,109,92.4,108.4z
		 M130.2,124.6c-0.8-0.5-0.9-0.5-1.4,0.2c-0.7,1.1-1.6,2.1-2.4,3.1c-0.2,0.3-0.5,0.6-0.8,1C127.9,128.1,129,126.4,130.2,124.6z
		 M158.4,126.9c0-0.1-0.1-0.1-0.1-0.2c-1,0-1.9,0-2.9,0c-0.1,0-0.3,0.2-0.3,0.3c-0.2,0.6-0.4,1.2-0.4,2c0.4-0.5,0.9-1.1,1.3-1.6
		c0.1-0.2,0.4-0.3,0.6-0.4c0.1,0.3,0.4,0.6,0.3,0.8c-0.1,0.4-0.3,0.7-0.6,1c-0.4,0.6-0.9,1.2-1.4,1.8c0.1,0.1,0.2,0.1,0.3,0.2
		C156.2,129.5,157.3,128.2,158.4,126.9z M84.6,107c-1.7,0-3.5,0-5.6,0c1,0.4,1.9,0.7,2.7,0.9c0.3,0.1,0.7-0.2,1-0.2
		c0.2,0,0.4-0.1,0.6,0c0.7,0.3,1.3,0.7,2.2,1.1C85.1,108.1,84.9,107.6,84.6,107z M118.7,124.4c-0.3,0.2-0.4,0.8-0.3,1.1
		c0.2,0.5,0.2,0.9-0.1,1.4c-0.3,0.6-0.6,1.2-0.9,1.8c0.1,0,0.1,0.1,0.2,0.1c1-1.6,1.9-3.2,2.9-4.7c-0.1-0.1-0.1-0.2-0.2-0.3
		C119.8,124.1,119.1,124.1,118.7,124.4z M89,108.1c-1.7-1.9-1.9-2-3.2-1.1c1,0.8,2,1.6,3,2.5C88.8,109,88.9,108.6,89,108.1z
		 M173.8,148.7c-1.6-0.2-3.2-0.4-4.9-0.4c-0.7,0-1.4,0.2-2.1,0.5c2.4,0.5,5-0.3,7.3,0.9c0.1-0.1,0.1-0.2,0.2-0.3
		C174.1,149.1,174,148.8,173.8,148.7z M166.5,141.2c2.4,0,4.7,0,6.9,0C172.1,140.2,168.2,140.3,166.5,141.2z M134.7,124.7
		c-1.1-0.1-1.9-0.2-2.7-0.2c-0.2,0-0.4,0.3-0.5,0.5c-0.2,0.5-0.4,1.1-0.5,1.8c0.4-0.3,0.8-0.7,1.2-1c0.8-0.8,0.8-0.8,1.6,0
		C134.1,125.4,134.3,125.2,134.7,124.7z M137,126.8c0.5-0.5,1-1,1.5-1.5c-1.4-1-2.8-0.6-3.1,1C136.6,125.5,136.6,125.5,137,126.8z
		 M174.6,142.2c-1.6,0.1-3.2,0.2-4.7,0.3c0,0.1,0,0.2,0,0.2c1.6,0.2,3.1,0.3,4.9,0.5C174.7,142.8,174.6,142.5,174.6,142.2z
		 M105.6,152.8c0-0.3,0-0.6,0-1c-1,0.2-1.9,0.4-2.9,0.7C103.6,153.8,104.6,152.9,105.6,152.8z M143.6,125.4
		c-0.7-0.1-1.4-0.1-2.1-0.2c-0.1,0-0.3,0.3-0.4,0.4c-0.1,0.3,0,0.6,0,1.1c0.4-0.2,0.8-0.4,1.1-0.6c0.6-0.5,1.1-0.6,1.5,0.3
		C144.4,125.8,144.2,125.5,143.6,125.4z M167.4,146.9c2.2-0.6,4.3,0,6.4,0.4c0.2,0,0.3,0,0.5-0.1c-0.1-0.1-0.1-0.3-0.2-0.4
		c-2.4-0.2-4.7-0.9-7.1-0.2c0,0-0.1,0.1-0.3,0.2C167.1,146.9,167.3,146.9,167.4,146.9z M120.3,156.8c0.2,0.2,0.5,0.3,0.7,0.5
		c0.2-0.3,0.5-0.6,0.4-0.9c-0.1-0.5-0.4-1-0.6-1.5C119.9,155.7,119.7,156.1,120.3,156.8z M165,147.2c-0.4,0-0.8,0-1.2,0.2
		c-0.1,0.1-0.2,0.6-0.1,0.9c0.2,0.6,0.6,0.8,1.2,0.6C165,148.3,165,147.8,165,147.2z M116.6,83.7c0.1-1.3-0.7-2-2.2-2
		C115.2,82.4,115.9,83.1,116.6,83.7z M177,125.5c-0.9-0.5-1.1-0.3-1.6,1.8C175.9,126.7,176.5,126.1,177,125.5z M143.7,122.8
		c0.1,1.1,0.5,1.3,2,1.2C145,123.6,144.4,123.2,143.7,122.8z M174.3,145c0-0.1,0-0.2,0-0.3c-0.8,0-1.7,0-2.5,0
		C172.7,144.9,173.5,145.3,174.3,145z M129.6,105c0.9,0.3,1,0.2,0.9-1C130.2,104.4,129.9,104.7,129.6,105z M139.4,126
		c0.1,0.1,0.1,0.1,0.2,0.2c0.3-0.3,0.6-0.5,0.9-0.8c-0.1-0.1-0.2-0.2-0.3-0.3C139.3,124.9,139.6,125.7,139.4,126z M176.2,132.2
		c0,0.1,0,0.3,0.1,0.4c0.5-0.1,1-0.2,1.5-0.3c0-0.1-0.1-0.3-0.1-0.4C177.2,132,176.7,132.1,176.2,132.2z"/>
	<path class="st0" d="M131.8,155.4c0-1.6-1.5-3.2-2.9-3.1c-0.3,0-0.8,0.4-0.8,0.6c-0.1,0.3,0.2,0.7,0.5,0.9c0.8,0.6,1.8,1,1.9,2.2
		c0,0.2,0.3,0.5,0.4,0.4c0.3-0.1,0.6-0.2,0.8-0.4C131.8,155.9,131.8,155.5,131.8,155.4z"/>
	<path class="st0" d="M130.9,141.3c0,1.4,0.8,2,1.8,1.6c0.6-0.2,1.2-0.5,1.7-0.8c0.5-0.3,0.4-0.8-0.1-1.2c-0.2-0.1-0.4-0.2-0.5-0.4
		c-0.5-0.8-1.3-0.3-1.8-0.2C131.5,140.5,131.2,141.1,130.9,141.3z"/>
	<path class="st0" d="M134.7,148.6c0-0.9-0.4-1.3-1.1-1.3c-0.9,0-1.6,0.7-1.6,1.6c0,0.7,0.7,1.4,1.4,1.3
		C134.1,150.2,134.7,149.4,134.7,148.6z"/>
	<path class="st0" d="M130.3,152.2c0.2,0.1,0.5,0.5,0.8,0.6c0.7,0.1,1.4-0.8,1.4-1.7c0-0.5-0.2-1-0.8-1
		C131.1,150.1,130.3,151.1,130.3,152.2z"/>
	<path class="st0" d="M129.9,146.4c0.2,0.1,0.4,0.6,0.8,0.7c0.5,0.1,1.2-0.9,1.2-1.5c0-0.5-0.6-1.1-1.1-1.1
		C130.2,144.7,129.8,145.3,129.9,146.4z"/>
	<path class="st0" d="M133.6,145.4c0.3,0.5,0.5,1,0.9,1.5c0.1,0.1,0.6,0.1,0.6,0c0.2-0.3,0.5-0.7,0.5-1c-0.1-0.4-0.4-0.8-0.7-1.1
		c-0.2-0.2-0.6-0.2-0.8-0.1C133.9,144.8,133.8,145.1,133.6,145.4z"/>
	<path class="st0" d="M134.5,151.6c0.2,0.1,0.6,0.6,0.7,0.5c0.4-0.3,0.8-0.6,1-1.1c0.1-0.2-0.4-0.8-0.7-0.9
		C134.8,150.1,134.6,150.7,134.5,151.6z"/>
	<path class="st0" d="M49.6,138.1c0-0.8-0.3-1.1-1-1.1c-0.6-0.1-0.9,0.2-1.1,0.8c-0.1,0.4-0.3,0.8-0.5,1.2c-0.4,0.7-0.2,1.6,0.6,2
		c0.5,0.3,1.3-0.1,1.5-0.8C49.4,139.3,49.5,138.6,49.6,138.1z"/>
	<path class="st0" d="M49.5,146.2c-0.3-0.7-0.5-1.5-0.9-2.2c-0.3-0.5-0.9-0.7-1.5-0.2c-0.5,0.5-0.5,0.9,0,1.5
		c0.2,0.2,0.3,0.6,0.4,0.9c0.1,0.3,0,0.6,0.1,0.8c0.2,0.3,0.6,0.5,0.9,0.8c0.3-0.3,0.6-0.6,0.8-1c0.1-0.1,0-0.3,0-0.5
		C49.4,146.3,49.4,146.2,49.5,146.2z"/>
	<path class="st0" d="M55,137.1c0-0.8-1.8-2.2-2.7-2.1c-0.2,0-0.5,0.1-0.6,0.3c-0.6,0.8-0.4,1.4,0.5,1.7c0.6,0.2,1.2,0.6,1.9,0.8
		C54.7,138.1,55,137.9,55,137.1z"/>
	<path class="st0" d="M49,142.2c0,0.6,0.6,1.3,1.1,1.3c0.6,0,0.9-0.5,0.9-1c0-0.5-0.1-1.3-0.9-1.3C49.5,141.1,49,141.7,49,142.2z"/>
	<path class="st0" d="M51.3,139.2c0,0.6,0.7,1.4,1.2,1.3c0.6,0,0.9-0.5,0.9-1c0.1-0.6-0.6-1.1-1.3-1.2
		C51.5,138.4,51.3,138.6,51.3,139.2z"/>
	<path class="st0" d="M52.2,147.2c0.2-0.3,0.6-0.7,0.6-1c0.1-0.5-0.2-1-0.9-1c-0.5,0-0.9,0.3-0.8,0.8c0.1,0.4,0.5,0.8,0.7,1.2
		C51.9,147.2,52.1,147.2,52.2,147.2z"/>
</g>
</svg>
